HIERARCHY
ROOT Hips
{
	OFFSET 0.00000 0.00000 0.00000
	CHANNELS 6 Xposition Yposition Zposition Zrotation Yrotation Xrotation 
	JOINT LHipJoint
	{
		OFFSET 0 0 0
		CHANNELS 3 Zrotation Yrotation Xrotation
		JOINT LeftUpLeg
		{
			OFFSET 1.61328 -1.70571 0.84375
			CHANNELS 3 Zrotation Yrotation Xrotation
			JOINT LeftLeg
			{
				OFFSET 2.32400 -6.38513 0.00000
				CHANNELS 3 Zrotation Yrotation Xrotation
				JOINT LeftFoot
				{
					OFFSET 2.58843 -7.11166 0.00000
					CHANNELS 3 Zrotation Yrotation Xrotation
					JOINT LeftToeBase
					{
						OFFSET 0.17200 -0.47257 2.47970
						CHANNELS 3 Zrotation Yrotation Xrotation
						End Site
						{
							OFFSET 0.00000 -0.00000 1.26912
						}
					}
				}
			}
		}
	}
	JOINT RHipJoint
	{
		OFFSET 0 0 0
		CHANNELS 3 Zrotation Yrotation Xrotation
		JOINT RightUpLeg
		{
			OFFSET -1.49930 -1.70570 0.84375
			CHANNELS 3 Zrotation Yrotation Xrotation
			JOINT RightLeg
			{
				OFFSET -2.30458 -6.33178 0.00000
				CHANNELS 3 Zrotation Yrotation Xrotation
				JOINT RightFoot
				{
					OFFSET -2.62261 -7.20556 0.00000
					CHANNELS 3 Zrotation Yrotation Xrotation
					JOINT RightToeBase
					{
						OFFSET -0.18709 -0.51403 2.51340
						CHANNELS 3 Zrotation Yrotation Xrotation
						End Site
						{
							OFFSET -0.00000 -0.00000 1.28858
						}
					}
				}
			}
		}
	}
	JOINT LowerBack
	{
		OFFSET 0 0 0
		CHANNELS 3 Zrotation Yrotation Xrotation
		JOINT Spine
		{
			OFFSET -0.03798 2.19274 -0.19881
			CHANNELS 3 Zrotation Yrotation Xrotation
			JOINT Spine1
			{
				OFFSET -0.00024 2.19460 0.05248
				CHANNELS 3 Zrotation Yrotation Xrotation
				JOINT Neck
				{
					OFFSET 0 0 0
					CHANNELS 3 Zrotation Yrotation Xrotation
					JOINT Neck1
					{
						OFFSET -0.00746 1.82323 0.17286
						CHANNELS 3 Zrotation Yrotation Xrotation
						JOINT Head
						{
							OFFSET 0.11826 1.82121 -0.27841
							CHANNELS 3 Zrotation Yrotation Xrotation
							End Site
							{
								OFFSET 0.03496 1.85543 -0.11495
							}
						}
					}
				}
				JOINT LeftShoulder
				{
					OFFSET 0 0 0
					CHANNELS 3 Zrotation Yrotation Xrotation
					JOINT LeftArm
					{
						OFFSET 3.71926 0.78840 0.25473
						CHANNELS 3 Zrotation Yrotation Xrotation
						JOINT LeftForeArm
						{
							OFFSET 5.37587 -0.00000 0.00000
							CHANNELS 3 Zrotation Yrotation Xrotation
							JOINT LeftHand
							{
								OFFSET 3.35977 -0.00000 0.00000
								CHANNELS 3 Zrotation Yrotation Xrotation
								JOINT LeftFingerBase
								{
									OFFSET 0 0 0
									CHANNELS 3 Zrotation Yrotation Xrotation
									JOINT LeftHandIndex1
									{
										OFFSET 0.56186 -0.00000 0.00000
										CHANNELS 3 Zrotation Yrotation Xrotation
										End Site
										{
											OFFSET 0.45299 -0.00000 0.00000
										}
									}
								}
								JOINT LThumb
								{
									OFFSET 0 0 0
									CHANNELS 3 Zrotation Yrotation Xrotation
									End Site
									{
										OFFSET 0.45990 -0.00000 0.45990
									}
								}
							}
						}
					}
				}
				JOINT RightShoulder
				{
					OFFSET 0 0 0
					CHANNELS 3 Zrotation Yrotation Xrotation
					JOINT RightArm
					{
						OFFSET -3.65136 0.56074 0.01624
						CHANNELS 3 Zrotation Yrotation Xrotation
						JOINT RightForeArm
						{
							OFFSET -5.22819 -0.00000 0.00000
							CHANNELS 3 Zrotation Yrotation Xrotation
							JOINT RightHand
							{
								OFFSET -3.40764 -0.00000 0.00000
								CHANNELS 3 Zrotation Yrotation Xrotation
								JOINT RightFingerBase
								{
									OFFSET 0 0 0
									CHANNELS 3 Zrotation Yrotation Xrotation
									JOINT RightHandIndex1
									{
										OFFSET -0.58325 -0.00000 0.00000
										CHANNELS 3 Zrotation Yrotation Xrotation
										End Site
										{
											OFFSET -0.47024 -0.00000 0.00000
										}
									}
								}
								JOINT RThumb
								{
									OFFSET 0 0 0
									CHANNELS 3 Zrotation Yrotation Xrotation
									End Site
									{
										OFFSET -0.47742 -0.00000 0.47742
									}
								}
							}
						}
					}
				}
			}
		}
	}
}
MOTION
Frames: 10
Frame Time: .0083333
40.2371 16.7683 -6.5411 -333.0160 83.1015 3269.3300 0.0000 0.0000 0.0000 -23.4760 14.1136 5.8204 1.3767 7.4251 20.9809 0.1145 0.4136 -6.5559 1.1763 -6.8838 -19.3717 0.0000 0.0000 0.0000 24.1434 -0.9195 -30.0499 -2.8857 -10.5076 30.6367 -1.3923 -13.6643 -30.9069 -3.2833 -11.1401 32.7540 -2.9732 -0.2385 -2.7207 0.2020 -0.0677 5.3794 1.8755 -0.1709 7.1482 1.0820 -1.1270 -10.2702 1.3642 -1.7024 23.3029 0.1243 -0.4012 8.9846 -0.0000 0.0000 0.0000 -92.0305 -6.8149 17.1213 8.1962 -13.8704 -0.9986 -0.0000 0.0000 -0.3375 18.8940 15.1665 5.1168 -7.1250 0.0000 -0.0000 -8.1820 45.8051 -0.1637 -0.0000 0.0000 0.0000 88.0961 2.2617 18.2111 -12.7506 20.9207 -2.3635 0.0000 -0.0000 -1.5075 -21.9684 5.9618 -2.3991 7.1250 -0.0000 -0.0000 3.5160 -23.5574 1.8211
40.3361 16.7792 -6.5137 -334.0290 83.0275 3268.3100 0.0000 0.0000 0.0000 -23.1490 14.2140 4.9923 1.6055 7.9909 22.6865 0.0888 0.4031 -5.7909 1.1513 -6.8127 -19.1617 0.0000 0.0000 0.0000 24.3251 -1.1648 -29.6997 -2.8855 -10.5074 30.6360 -1.3547 -13.6018 -30.6113 -3.3621 -11.2593 33.1594 -2.8212 -0.2831 -2.7595 0.2715 -0.1424 5.3484 1.8563 -0.2018 7.1404 1.0980 -1.1309 -10.3152 1.4087 -1.7233 23.3684 0.1344 -0.4035 9.0162 -0.0000 -0.0000 0.0000 -91.9588 -6.2419 16.7663 8.1882 -13.8575 -0.9967 -0.0000 0.0000 -0.3620 18.7226 15.1425 5.0594 -7.1250 0.0000 -0.0000 -8.3342 45.7586 -0.1571 -0.0000 -0.0000 0.0000 88.0648 2.1467 18.1932 -12.8740 21.1023 -2.4077 0.0000 -0.0000 -1.6805 -22.0007 5.9803 -2.4105 7.1250 -0.0000 -0.0000 3.4921 -23.5360 1.8104
40.4337 16.7891 -6.4869 -335.2260 82.9389 3267.1000 0.0000 0.0000 0.0000 -22.8000 14.3119 4.1626 1.8535 8.5540 24.4098 0.0647 0.4327 -4.9824 1.1147 -6.7074 -18.8513 0.0000 0.0000 0.0000 24.5240 -1.4139 -29.3268 -2.8809 -10.4998 30.6108 -1.3360 -13.4480 -30.3560 -3.4209 -11.3471 33.4597 -2.6458 -0.3244 -2.7814 0.3431 -0.2145 5.3197 1.8264 -0.2301 7.1248 1.1099 -1.1342 -10.3638 1.4584 -1.7446 23.4205 0.1468 -0.4062 9.0439 -0.0000 -0.0000 0.0000 -91.8871 -5.6733 16.4693 8.2007 -13.8777 -0.9997 -0.0000 0.0000 -0.4211 18.5701 15.0928 4.9994 -7.1250 0.0000 -0.0000 -8.4626 45.6881 -0.1448 -0.0000 -0.0000 0.0000 88.0224 2.0169 18.2594 -13.0311 21.3328 -2.4646 0.0000 -0.0000 -1.9202 -22.0199 5.9855 -2.4149 7.1250 -0.0000 -0.0000 3.4780 -23.5295 1.8035
40.5294 16.7979 -6.4604 -336.5960 82.8261 3265.7000 0.0000 0.0000 0.0000 -22.4352 14.3984 3.3259 2.1217 9.1151 26.1560 0.0425 0.5162 -4.1184 1.0617 -6.5509 -18.3916 0.0000 0.0000 0.0000 24.7362 -1.6415 -28.9302 -2.8720 -10.4849 30.5617 -1.3356 -13.2147 -30.1507 -3.4595 -11.4042 33.6554 -2.4555 -0.3586 -2.7841 0.4173 -0.2787 5.2910 1.7916 -0.2535 7.0972 1.1239 -1.1366 -10.4028 1.5108 -1.7661 23.4454 0.1597 -0.4094 9.0605 0.0000 -0.0000 0.0000 -91.8181 -5.1085 16.2203 8.2357 -13.9342 -1.0081 -0.0000 0.0000 -0.5053 18.4438 15.0299 4.9429 -7.1250 0.0000 -0.0000 -8.5637 45.6073 -0.1293 0.0000 -0.0000 0.0000 87.9671 1.8753 18.4081 -13.2174 21.6049 -2.5328 0.0000 -0.0000 -2.2341 -22.0294 5.9862 -2.4163 7.1250 -0.0000 -0.0000 3.4709 -23.5283 1.8000
40.6230 16.8059 -6.4342 -338.0820 82.6788 3264.1900 0.0000 0.0000 0.0000 -22.0666 14.4696 2.4871 2.4106 9.6735 27.9256 0.0232 0.6578 -3.1991 0.9933 -6.3430 -17.7828 0.0000 0.0000 0.0000 24.9534 -1.8430 -28.5116 -2.8593 -10.4638 30.4919 -1.3473 -12.9287 -29.9813 -3.4797 -11.4338 33.7574 -2.2598 -0.3834 -2.7686 0.4937 -0.3306 5.2629 1.7570 -0.2706 7.0589 1.1267 -1.1404 -10.4302 1.5736 -1.7898 23.4497 0.1779 -0.4139 9.0680 0.0000 -0.0000 0.0000 -91.7598 -4.5512 15.9990 8.2912 -14.0238 -1.0215 -0.0000 0.0000 -0.6037 18.3571 14.9737 4.9003 -7.1250 0.0000 -0.0000 -8.6297 45.5385 -0.1156 0.0000 -0.0000 0.0000 87.8958 1.7282 18.6301 -13.4248 21.9064 -2.6096 0.0000 -0.0000 -2.6081 -22.0339 5.9878 -2.4175 7.1250 -0.0000 -0.0000 3.4676 -23.5264 1.7984
40.7142 16.8130 -6.4086 -339.6600 82.4929 3262.5800 0.0000 0.0000 0.0000 -21.6983 14.5226 1.6439 2.7196 10.2267 29.7142 0.0081 0.8524 -2.2328 0.9089 -6.0751 -17.0026 0.0000 0.0000 0.0000 25.1763 -2.0185 -28.0825 -2.8435 -10.4374 30.4050 -1.3642 -12.6164 -29.8273 -3.4851 -11.4417 33.7844 -2.0564 -0.3954 -2.7366 0.5713 -0.3662 5.2332 1.7210 -0.2791 7.0084 1.1236 -1.1469 -10.4418 1.6433 -1.8174 23.4317 0.1990 -0.4207 9.0650 0.0000 -0.0000 0.0000 -91.7121 -4.0019 15.8123 8.3681 -14.1478 -1.0402 -0.0000 0.0000 -0.7263 18.3141 14.9378 4.8766 -7.1250 0.0000 -0.0000 -8.6605 45.4961 -0.1069 0.0000 -0.0000 0.0000 87.8085 1.5804 18.9079 -13.6469 22.2277 -2.6931 0.0000 -0.0000 -3.0218 -22.0353 5.9923 -2.4195 7.1250 -0.0000 -0.0000 3.4666 -23.5215 1.7982
40.8029 16.8196 -6.3838 -341.2680 82.2636 3260.9400 0.0000 0.0000 0.0000 -21.3408 14.5570 0.7931 3.0473 10.7712 31.5119 -0.0019 1.0974 -1.2358 0.8174 -5.7691 -16.1158 0.0000 0.0000 0.0000 25.3973 -2.1637 -27.6493 -2.8257 -10.4074 30.3065 -1.3818 -12.3005 -29.6789 -3.4826 -11.4381 33.7720 -1.8512 -0.3977 -2.6906 0.6476 -0.3885 5.2023 1.6838 -0.2808 6.9478 1.1124 -1.1532 -10.4333 1.7252 -1.8455 23.3925 0.2256 -0.4277 9.0510 -0.0000 -0.0000 0.0000 -91.6738 -3.4644 15.6521 8.4660 -14.3054 -1.0643 -0.0000 0.0000 -0.8816 18.3133 14.9417 4.8777 -7.1250 0.0000 -0.0000 -8.6621 45.5001 -0.1077 -0.0000 -0.0000 0.0000 87.7099 1.4415 19.2279 -13.8780 22.5600 -2.7811 0.0000 -0.0000 -3.4434 -22.0361 5.9995 -2.4225 7.1250 -0.0000 -0.0000 3.4660 -23.5137 1.7986
40.8892 16.8255 -6.3601 -342.8320 81.9934 3259.3400 0.0000 0.0000 0.0000 -21.0004 14.5718 -0.0568 3.3903 11.3016 33.3039 -0.0059 1.3833 -0.2276 0.7225 -5.4314 -15.1432 0.0000 0.0000 0.0000 25.6102 -2.2876 -27.2157 -2.8068 -10.3755 30.2016 -1.3961 -11.9966 -29.5226 -3.4704 -11.4202 33.7104 -1.6461 -0.3908 -2.6357 0.7197 -0.3978 5.1756 1.6434 -0.2761 6.8861 1.0928 -1.1628 -10.4252 1.8171 -1.8791 23.3472 0.2565 -0.4372 9.0353 0.0000 -0.0000 0.0000 -91.6443 -2.9495 15.5106 8.5801 -14.4887 -1.0927 -0.0000 0.0000 -1.0658 18.3650 14.9553 4.8967 -7.1250 0.0000 -0.0000 -8.6180 45.5205 -0.1115 0.0000 -0.0000 0.0000 87.6022 1.3251 19.5741 -14.1114 22.8937 -2.8713 0.0000 -0.0000 -3.8522 -22.0353 6.0031 -2.4238 7.1250 -0.0000 -0.0000 3.4666 -23.5098 1.7991
40.9734 16.8308 -6.3374 -344.3550 81.6872 3257.7900 0.0000 0.0000 0.0000 -20.6751 14.5623 -0.9037 3.7450 11.8131 35.0740 -0.0039 1.6972 0.7487 0.6322 -5.0876 -14.1587 0.0000 0.0000 0.0000 25.8200 -2.3964 -26.7888 -2.7877 -10.3432 30.0955 -1.4058 -11.7090 -29.3528 -3.4491 -11.3888 33.6027 -1.4349 -0.3762 -2.5799 0.7881 -0.3961 5.1549 1.5966 -0.2656 6.8297 1.0776 -1.1744 -10.4175 1.9088 -1.9163 23.2938 0.2860 -0.4483 9.0169 -0.0000 0.0000 0.0000 -91.6241 -2.4663 15.3692 8.7016 -14.6836 -1.1233 -0.0000 0.0000 -1.2641 18.4530 14.9651 4.9249 -7.1250 0.0000 -0.0000 -8.5395 45.5416 -0.1150 -0.0000 0.0000 0.0000 87.4894 1.2374 19.9310 -14.3433 23.2234 -2.9621 0.0000 -0.0000 -4.2339 -22.0418 6.0134 -2.4288 7.1250 -0.0000 -0.0000 3.4618 -23.4985 1.7976
41.0556 16.8353 -6.3159 -345.7890 81.3446 3256.3300 0.0000 0.0000 0.0000 -20.3708 14.5304 -1.7426 4.1072 12.3017 36.8077 0.0036 2.0324 1.6985 0.5538 -4.7672 -13.2459 0.0000 0.0000 0.0000 26.0216 -2.4910 -26.3682 -2.7688 -10.3110 29.9898 -1.4067 -11.4631 -29.1608 -3.4105 -11.3317 33.4069 -1.2258 -0.3548 -2.5262 0.8522 -0.3843 5.1418 1.5473 -0.2503 6.7824 1.0664 -1.1885 -10.4176 2.0015 -1.9584 23.2404 0.3147 -0.4612 9.0000 0.0000 -0.0000 0.0000 -91.6139 -2.0173 15.2274 8.8270 -14.8844 -1.1553 -0.0000 0.0000 -1.4714 18.5848 14.9491 4.9573 -7.1250 0.0000 -0.0000 -8.4145 45.5416 -0.1133 0.0000 -0.0000 0.0000 87.3721 1.1820 20.2888 -14.5695 23.5430 -3.0519 0.0000 -0.0000 -4.5769 -22.0578 6.0174 -2.4323 7.1250 -0.0000 -0.0000 3.4500 -23.4935 1.7918
